<?xml version="1.0" encoding="UTF-8" standalone="no"?>
<svg
   role="img"
   viewBox="0 0 24 24"
   version="1.1"
   id="svg136"
   xmlns="http://www.w3.org/2000/svg"
   xmlns:svg="http://www.w3.org/2000/svg"
   xmlns:rdf="http://www.w3.org/1999/02/22-rdf-syntax-ns#"
   xmlns:cc="http://creativecommons.org/ns#"
   xmlns:dc="http://purl.org/dc/elements/1.1/">
  <defs
     id="defs140" />
  <title
     id="title132">Mastodon</title>
  <path
     d="M 23.268,5.313 C 22.918,2.735 20.651,0.703 17.964,0.309 17.51,0.242 15.792,0 11.813,0 h -0.03 C 7.803,0 6.948,0.242 6.495,0.309 3.882,0.692 1.496,2.518 0.917,5.127 0.64,6.412 0.61,7.837 0.661,9.143 c 0.074,1.874 0.088,3.745 0.26,5.611 0.118,1.24 0.325,2.47 0.62,3.68 0.55,2.237 2.777,4.098 4.96,4.857 2.336,0.792 4.849,0.923 7.256,0.38 0.265,-0.061 0.527,-0.132 0.786,-0.213 0.585,-0.184 1.27,-0.39 1.774,-0.753 a 0.057,0.057 0 0 0 0.023,-0.043 v -1.809 a 0.052,0.052 0 0 0 -0.02,-0.041 0.053,0.053 0 0 0 -0.046,-0.01 20.282,20.282 0 0 1 -4.709,0.545 c -2.73,0 -3.463,-1.284 -3.674,-1.818 A 5.593,5.593 0 0 1 7.572,18.096 0.053,0.053 0 0 1 7.638,18.042 c 1.517,0.363 3.072,0.546 4.632,0.546 0.376,0 0.75,0 1.125,-0.01 1.57,-0.044 3.224,-0.124 4.768,-0.422 0.038,-0.008 0.077,-0.015 0.11,-0.024 2.435,-0.464 4.753,-1.92 4.989,-5.604 0.008,-0.145 0.03,-1.52 0.03,-1.67 0.002,-0.512 0.167,-3.63 -0.024,-5.545 z"
     id="path1384"
     style="fill:hsl(239.6, 100%, 69.4%);fill-opacity:1" />
  <path
     d="M 19.52,14.508 H 16.959 V 8.29 c 0,-1.309 -0.55,-1.976 -1.67,-1.976 -1.23,0 -1.846,0.79 -1.846,2.35 v 3.403 H 10.897 V 8.663 c 0,-1.56 -0.617,-2.35 -1.848,-2.35 -1.112,0 -1.668,0.668 -1.67,1.977 v 6.218 H 4.822 V 8.102 c 0,-1.31 0.337,-2.35 1.011,-3.12 0.696,-0.77 1.608,-1.164 2.74,-1.164 1.311,0 2.302,0.5 2.962,1.498 l 0.638,1.06 0.638,-1.06 c 0.66,-0.999 1.65,-1.498 2.96,-1.498 1.13,0 2.043,0.395 2.74,1.164 0.675,0.77 1.012,1.81 1.012,3.12 z"
     id="path1388"
     style="fill:#ffffff" />
  <metadata
     id="metadata10641">
    <rdf:RDF>
      <cc:Work
         rdf:about="">
        <dc:title>Mastodon</dc:title>
      </cc:Work>
    </rdf:RDF>
  </metadata>
</svg>
