<?xml version="1.0" encoding="UTF-8" standalone="no"?>
<svg
   xmlns:dc="http://purl.org/dc/elements/1.1/"
   xmlns:cc="http://creativecommons.org/ns#"
   xmlns:rdf="http://www.w3.org/1999/02/22-rdf-syntax-ns#"
   xmlns:svg="http://www.w3.org/2000/svg"
   xmlns="http://www.w3.org/2000/svg"
   viewBox="0 0 883.66673 843.66635"
   height="496.27432"
   width="519.80396"
   xml:space="preserve"
   id="svg80"
   version="1.1"><metadata
     id="metadata86"><rdf:RDF><cc:Work
         rdf:about=""><dc:format>image/svg+xml</dc:format><dc:type
           rdf:resource="http://purl.org/dc/dcmitype/StillImage" /><dc:title></dc:title></cc:Work></rdf:RDF></metadata><defs
     id="defs84"><clipPath
       id="clipPath96"
       clipPathUnits="userSpaceOnUse"><path
         id="path94"
         d="M 0,1000 H 1000 V 0 H 0 Z" /></clipPath></defs><g
     transform="matrix(1.3333333,0,0,-1.3333333,1.308961,1333.628)"
     id="g88"><g
       transform="translate(-170.41747,183.37749)"
       id="g90"><g
         clip-path="url(#clipPath96)"
         id="g92"><g
           transform="translate(825.5221,552.713)"
           id="g98"><path
             id="path100"
             style="fill:#ed1c40;fill-opacity:1;fill-rule:nonzero;stroke:none"
             d="m 0,0 c -1.479,6.832 -8.21,11.18 -15.044,9.702 -6.843,-1.478 -11.185,-8.207 -9.715,-15.047 1.479,-6.832 8.219,-11.172 15.053,-9.702 C -2.871,-13.569 1.479,-6.832 0,0 m -28.859,-82.06 c -1.986,9.195 -11.047,15.03 -20.237,13.054 -9.19,-1.985 -15.036,-11.043 -13.05,-20.23 1.977,-9.195 11.038,-15.03 20.237,-13.053 9.19,1.985 15.036,11.042 13.05,20.229 M -73.167,51.811 c 10.402,7.184 13.007,21.432 5.82,31.83 -7.187,10.398 -21.44,13.002 -31.842,5.818 -10.402,-7.184 -13.007,-21.432 -5.82,-31.831 7.187,-10.398 21.44,-13.002 31.842,-5.817 m -57.89,-16.457 c 2.037,26.649 -4.617,54.114 -21.002,77.815 -31.937,46.199 -90.248,63.146 -140.694,44.858 -45.072,28.866 -104.691,30.078 -151.482,-2.243 -23.684,-16.362 -40.56,-38.86 -50.068,-63.867 -13.772,-1.865 -27.355,-6.471 -39.579,-14.918 -40.405,-27.913 -51.065,-82.327 -25.429,-123.585 -34.791,-31.856 -42.812,-84.896 -16.377,-125.87 15.68,-24.294 40.31,-38.929 66.762,-43.277 0.49,-19.826 6.439,-39.737 18.561,-57.268 33.148,-47.961 98.922,-59.974 146.892,-26.837 1.831,1.271 3.249,2.878 4.977,4.236 26.736,-23.856 66.874,-27.791 97.659,-6.523 16.428,11.344 26.933,27.852 31.515,45.787 24.088,-0.885 48.615,5.234 69.969,19.989 51.228,35.388 64.974,104.584 32.203,156.79 26.306,22.18 31.972,60.971 11.761,89.605 -9.01,12.779 -21.759,21.166 -35.668,25.308 m -131.848,192.023 c -7.642,12.719 -24.148,16.844 -36.863,9.204 -12.723,-7.631 -16.841,-24.131 -9.207,-36.849 7.643,-12.718 24.149,-16.835 36.863,-9.204 12.723,7.64 16.841,24.139 9.207,36.849 m -183.523,19.018 c -1.676,7.769 -9.336,12.71 -17.107,11.034 -7.78,-1.676 -12.723,-9.332 -11.038,-17.109 1.676,-7.769 9.336,-12.71 17.107,-11.035 7.78,1.676 12.723,9.342 11.038,17.11 m -61.294,-126.102 c 9.344,6.454 11.683,19.258 5.227,28.599 -6.457,9.342 -19.266,11.679 -28.61,5.225 -9.336,-6.454 -11.683,-19.258 -5.227,-28.599 6.456,-9.333 19.265,-11.679 28.61,-5.225 m -92.57,-174.604 c 8.459,12.331 5.322,29.183 -7.015,37.639 -12.336,8.457 -29.194,5.32 -37.653,-7.012 -8.459,-12.332 -5.322,-29.184 7.015,-37.64 12.336,-8.456 29.194,-5.319 37.653,7.013 m 48.451,-194.739 c 1.462,-6.798 8.167,-11.121 14.959,-9.651 6.8,1.469 11.124,8.164 9.654,14.961 -1.47,6.798 -8.167,11.112 -14.967,9.651 -6.791,-1.47 -11.116,-8.164 -9.646,-14.961 m 201.146,-81.304 c -7.952,-5.492 -9.946,-16.388 -4.453,-24.337 5.494,-7.949 16.394,-9.943 24.346,-4.452 7.952,5.5 9.947,16.397 4.453,24.346 -5.493,7.949 -16.394,9.934 -24.346,4.443 m 165.582,49.533 c -12.887,-8.903 -16.119,-26.563 -7.213,-39.445 8.906,-12.881 26.573,-16.112 39.468,-7.209 12.886,8.902 16.11,26.562 7.204,39.444 -8.906,12.89 -26.573,16.113 -39.459,7.21" /></g><g
           transform="translate(633.0888,383.7057)"
           id="g102"><path
             id="path104"
             style="fill:#ffffff;fill-opacity:1;fill-rule:nonzero;stroke:none"
             d="m 0,0 c -3.911,24.973 -50.162,5.715 -53.016,33.077 -4.041,38.825 53.704,122.501 49.147,154.985 -4.092,29.244 -23.804,35.371 -40.954,35.672 -16.661,0.301 -21.062,-2.355 -26.693,-5.629 -3.25,-1.882 -7.918,-5.612 -14.4,0.55 -4.307,4.099 -7.152,6.969 -11.708,10.604 -2.321,1.857 -6.018,4.194 -12.208,5.105 -6.198,0.911 -14.219,0 -19.316,-2.183 -5.107,-2.191 -9.113,-6.015 -13.308,-9.659 -4.187,-3.644 -14.821,-15.546 -24.733,-11.154 -4.298,1.898 -18.853,9.169 -29.358,13.715 -20.279,8.774 -49.526,-5.44 -60.056,-24.157 -15.672,-27.843 -46.612,-137.239 -51.297,-151.668 -10.505,-32.398 13.316,-58.806 45.442,-57.285 13.583,0.645 22.618,5.604 31.198,21.201 4.96,9.006 51.537,130.631 55.001,136.466 2.511,4.228 10.892,9.814 18.002,6.17 7.101,-3.644 8.519,-11.24 7.471,-18.399 -1.703,-11.575 -34.551,-85.772 -35.814,-94.168 -2.141,-14.274 4.642,-22.215 19.463,-22.988 10.161,-0.542 20.279,3.111 28.317,18.261 4.496,8.474 56.3,112.19 60.882,119.116 5.038,7.597 9.087,10.097 14.219,9.831 3.98,-0.198 10.351,-1.22 8.76,-13.148 -1.564,-11.696 -43.215,-87.801 -47.583,-106.44 -5.845,-24.913 7.832,-50.144 30.364,-61.187 C -57.804,-20.35 5.072,-32.415 0,0" /></g></g></g></g></svg>
