<?xml version="1.0" encoding="UTF-8" standalone="no"?>
<svg
   xmlns:dc="http://purl.org/dc/elements/1.1/"
   xmlns:cc="http://creativecommons.org/ns#"
   xmlns:rdf="http://www.w3.org/1999/02/22-rdf-syntax-ns#"
   xmlns:svg="http://www.w3.org/2000/svg"
   xmlns="http://www.w3.org/2000/svg"
   xmlns:sodipodi="http://sodipodi.sourceforge.net/DTD/sodipodi-0.dtd"
   xmlns:inkscape="http://www.inkscape.org/namespaces/inkscape"
   inkscape:version="1.0beta2 (2b71d25, 2019-12-03)"
   height="270"
   width="270"
   sodipodi:docname="Slack_Mark.svg"
   xml:space="preserve"
   viewBox="-2.7755576e-17 0 124.2 124.2"
   y="0px"
   x="0px"
   id="Layer_1"
   version="1.1"><metadata
   id="metadata78"><rdf:RDF><cc:Work
       rdf:about=""><dc:format>image/svg+xml</dc:format><dc:type
         rdf:resource="http://purl.org/dc/dcmitype/StillImage" /><dc:title></dc:title></cc:Work></rdf:RDF></metadata><defs
   id="defs76" /><sodipodi:namedview
   inkscape:current-layer="Layer_1"
   inkscape:window-maximized="0"
   inkscape:window-y="154"
   inkscape:window-x="270"
   inkscape:cy="109.33227"
   inkscape:cx="135"
   inkscape:zoom="2.8493784"
   inkscape:guide-bbox="true"
   viewbox-x="0"
   showguides="true"
   scale-x="0.46"
   showgrid="false"
   id="namedview74"
   inkscape:window-height="805"
   inkscape:window-width="1318"
   inkscape:pageshadow="2"
   inkscape:pageopacity="0"
   guidetolerance="10"
   gridtolerance="10"
   objecttolerance="10"
   borderopacity="1"
   inkscape:document-rotation="0"
   bordercolor="#666666"
   pagecolor="#ffffff" />
<style
   id="style45"
   type="text/css">
	.st0{fill:#E01E5A;}
	.st1{fill:#36C5F0;}
	.st2{fill:#2EB67D;}
	.st3{fill:#ECB22E;}
</style>
<g
   transform="translate(-72.828434,-72.661764)"
   id="g71">
	<g
   id="g51">
		<path
   inkscape:connector-curvature="0"
   id="path47"
   d="m 99.4,151.2 c 0,7.1 -5.8,12.9 -12.9,12.9 -7.1,0 -12.9,-5.8 -12.9,-12.9 0,-7.1 5.8,-12.9 12.9,-12.9 h 12.9 z"
   class="st0" />
		<path
   inkscape:connector-curvature="0"
   id="path49"
   d="m 105.9,151.2 c 0,-7.1 5.8,-12.9 12.9,-12.9 7.1,0 12.9,5.8 12.9,12.9 v 32.3 c 0,7.1 -5.8,12.9 -12.9,12.9 -7.1,0 -12.9,-5.8 -12.9,-12.9 z"
   class="st0" />
	</g>
	<g
   id="g57">
		<path
   inkscape:connector-curvature="0"
   id="path53"
   d="m 118.8,99.4 c -7.1,0 -12.9,-5.8 -12.9,-12.9 0,-7.1 5.8,-12.9 12.9,-12.9 7.1,0 12.9,5.8 12.9,12.9 v 12.9 z"
   class="st1" />
		<path
   inkscape:connector-curvature="0"
   id="path55"
   d="m 118.8,105.9 c 7.1,0 12.9,5.8 12.9,12.9 0,7.1 -5.8,12.9 -12.9,12.9 H 86.5 c -7.1,0 -12.9,-5.8 -12.9,-12.9 0,-7.1 5.8,-12.9 12.9,-12.9 z"
   class="st1" />
	</g>
	<g
   id="g63">
		<path
   inkscape:connector-curvature="0"
   id="path59"
   d="m 170.6,118.8 c 0,-7.1 5.8,-12.9 12.9,-12.9 7.1,0 12.9,5.8 12.9,12.9 0,7.1 -5.8,12.9 -12.9,12.9 h -12.9 z"
   class="st2" />
		<path
   inkscape:connector-curvature="0"
   id="path61"
   d="m 164.1,118.8 c 0,7.1 -5.8,12.9 -12.9,12.9 -7.1,0 -12.9,-5.8 -12.9,-12.9 V 86.5 c 0,-7.1 5.8,-12.9 12.9,-12.9 7.1,0 12.9,5.8 12.9,12.9 z"
   class="st2" />
	</g>
	<g
   id="g69">
		<path
   inkscape:connector-curvature="0"
   id="path65"
   d="m 151.2,170.6 c 7.1,0 12.9,5.8 12.9,12.9 0,7.1 -5.8,12.9 -12.9,12.9 -7.1,0 -12.9,-5.8 -12.9,-12.9 v -12.9 z"
   class="st3" />
		<path
   inkscape:connector-curvature="0"
   id="path67"
   d="m 151.2,164.1 c -7.1,0 -12.9,-5.8 -12.9,-12.9 0,-7.1 5.8,-12.9 12.9,-12.9 h 32.3 c 7.1,0 12.9,5.8 12.9,12.9 0,7.1 -5.8,12.9 -12.9,12.9 z"
   class="st3" />
	</g>
</g>
</svg>
